PathFileType	4	(X/Y/Z)	D:\TRACE\spotREDO_2-26-24\spot_justArm_Motion_1_1-v60.trc
DataRate	CameraRate	NumFrames	NumMarkers	Units	OrigDataRate	OrigDataStartFrame	OrigNumFrames
100.00	100.00	      35	9	mm	100.00	6126	      7000
Frame#	Time	front left toe			Front right toe			aft left toe			aft right toe			Arm			FL body			FR body			AL Body			AR Body			
		X1	Y1	Z1	X2	Y2	Z2	X3	Y3	Z3	X4	Y4	Z4	X5	Y5	Z5	X6	Y6	Z6	X7	Y7	Z7	X8	Y8	Z8	X9	Y9	Z9	

6126	61.250	-363.77795	16.43477	-39.77717	70.27586	17.19488	-160.41882	-235.16129	35.16397	548.63574	201.90076	41.41018	441.49963	-107.21139	714.63892	-772.45715	-266.72083	550.13275	-137.37625	-114.63654	552.85089	-172.18282	-79.89803	572.97058	726.46320	66.09632	571.22278	695.94727	
6127	61.260	-362.62018	16.14709	-39.69574	70.05563	16.70586	-160.43037	-234.10068	35.65235	548.59814	202.25197	41.25003	441.18283	-109.31359	714.50110	-773.30121	-265.73367	550.05493	-137.45297	-113.29633	552.55066	-172.47911	-78.89029	573.23480	726.11938	67.43584	571.67285	695.64185	
6128	61.270	-361.85376	16.08772	-39.77742	70.74812	16.79313	-160.68506	-233.42393	36.22681	548.21637	203.45764	41.59692	441.09943	-111.83102	714.44916	-773.18372	-264.91971	549.72406	-137.44905	-112.57928	552.40106	-172.77937	-77.23642	573.76538	725.89783	68.74724	571.92590	695.39569	
6129	61.280	-360.84732	16.06461	-39.63502	72.02226	16.55053	-161.00148	-231.98416	36.48071	548.25574	204.79300	41.91282	441.03903	-114.50938	714.36139	-773.73328	-264.02475	549.28491	-137.44159	-111.39616	551.61914	-172.43040	-75.31738	574.94769	726.63226	70.46661	572.27759	694.81909	
6130	61.290	-359.88791	15.67461	-39.53043	72.37035	16.60412	-161.14957	-231.06050	36.78296	548.18652	205.43295	41.74299	440.63138	-116.85130	714.59119	-773.95435	-263.43307	548.91577	-137.38087	-111.32413	551.40826	-172.92662	-73.61781	574.66693	725.34052	72.62016	572.54706	694.26117	
6131	61.300	-359.61819	15.76834	-39.52784	72.89767	16.91213	-161.24164	-229.77896	37.29162	548.11310	206.90878	41.70102	440.20758	-118.67929	714.47791	-774.21582	-263.23639	548.44678	-137.33337	-111.03500	551.08252	-173.10266	-71.44038	574.99927	724.99951	74.85683	573.05914	693.62097	
6132	61.310	-358.66730	15.65102	-39.34381	74.60010	17.08575	-161.16756	-228.86578	37.49295	547.87140	207.78468	41.68727	439.97446	-120.47247	714.62598	-774.61920	-263.23743	547.90070	-137.12697	-110.54754	550.49225	-172.84381	-69.13746	575.57202	725.30377	76.65796	573.48785	693.01495	
6133	61.320	-357.55762	15.23368	-39.42189	74.59975	16.45473	-161.94733	-227.91974	38.14911	548.02850	209.18442	42.03292	440.06415	-121.79901	714.79199	-774.77460	-263.13943	547.56537	-136.85175	-110.69382	550.14081	-173.32976	-67.27310	575.99139	724.81104	78.79284	573.94580	692.45239	
6134	61.330	-357.11493	15.19423	-39.02439	75.10378	16.73281	-161.76552	-226.50389	38.39547	548.01471	209.97879	41.93224	439.66809	-122.32156	714.93774	-774.67975	-263.49307	547.57062	-137.24486	-110.80020	549.79376	-173.49400	-65.32019	576.24420	724.67474	80.75220	574.48822	691.88922	
6135	61.340	-356.18396	15.05358	-38.95210	76.51660	16.95250	-161.73657	-225.79919	38.84812	547.96271	210.94119	42.08377	439.56567	-122.41802	715.00989	-774.73883	-262.91003	546.95728	-136.32527	-110.82769	549.56165	-173.62784	-63.15504	576.40747	723.93854	82.50932	574.86438	691.47467	
6136	61.350	-355.44522	14.87333	-39.03698	76.60658	16.62386	-162.06818	-224.54594	39.12693	548.04199	212.24289	42.37868	439.47357	-122.08527	715.01495	-774.87384	-262.83148	546.74805	-135.99626	-110.71403	549.52100	-173.67809	-61.53042	576.81641	724.21173	84.12147	575.12653	690.98810	
6137	61.360	-354.54782	14.92811	-39.04102	78.20760	17.57312	-161.78160	-223.48772	39.14169	548.22614	212.70097	42.28150	439.12943	-121.17889	714.65875	-774.95068	-262.71951	546.74829	-135.83450	-110.52071	549.62238	-173.72218	-60.04057	576.77167	723.72620	85.57086	575.38074	690.74976	
6138	61.370	-353.29150	14.73884	-39.08635	80.45585	18.04455	-161.30745	-222.47826	39.45391	548.41907	214.08635	42.58936	438.90173	-119.46632	714.06525	-774.62427	-262.48380	546.79663	-135.66663	-110.26927	549.78998	-173.72386	-58.65915	576.93884	723.66858	86.66737	575.40143	690.56531	
6139	61.380	-352.77631	14.94562	-38.91604	79.12826	16.97861	-162.26321	-221.47447	39.47441	548.15839	214.80461	42.72982	438.72162	-117.34995	713.05939	-774.44928	-262.05319	547.03973	-135.59108	-110.11933	550.19617	-173.74466	-56.94634	576.06769	723.01233	87.94453	575.74835	690.11993	
6140	61.390	-351.58795	14.69979	-38.93691	80.04264	16.92827	-162.40234	-220.80748	39.79531	547.96002	215.15837	42.74976	438.63135	-114.48036	711.58795	-774.54547	-261.74219	547.18433	-135.56934	-109.89381	550.68640	-173.76004	-56.19414	577.17322	723.70599	88.77512	576.02271	690.03668	
6141	61.400	-350.60312	14.77957	-38.90228	80.83088	16.87894	-162.48549	-219.94087	39.90409	547.99268	216.86348	43.20491	438.69617	-110.90926	709.65521	-774.38446	-261.38177	547.59839	-135.60799	-109.42627	551.03369	-173.86230	-55.83115	577.21912	723.81042	89.63390	576.17023	689.99292	
6142	61.410	-349.74255	14.78347	-38.97694	82.01014	17.09260	-162.48848	-218.82013	39.92445	547.84332	217.40390	43.25418	438.60925	-107.07096	707.32764	-774.41956	-260.94543	547.86072	-135.48329	-109.14310	551.36029	-173.84178	-54.86124	577.30750	723.73730	90.23593	576.43774	689.77838	
6143	61.420	-348.86676	14.94419	-39.21226	83.65924	17.32088	-162.21194	-218.17706	40.01944	547.62421	218.15573	43.57076	438.50812	-102.79978	704.79669	-774.35034	-260.59509	547.92096	-135.43102	-108.80672	551.58154	-173.81660	-54.19006	577.41907	723.61389	90.87138	576.81964	689.64960	
6144	61.430	-347.92300	14.81759	-39.35153	83.96310	16.83235	-162.39029	-217.23557	40.10830	547.78406	219.45837	43.90409	438.62448	-97.80753	701.71796	-774.26984	-259.96313	547.89514	-135.41269	-107.50504	551.53003	-173.33929	-53.86135	577.51251	723.33221	91.62272	577.21301	689.66058	
6145	61.440	-346.86276	14.78862	-39.53819	84.72453	16.61364	-162.50406	-216.12350	40.22031	547.84387	220.07184	43.86827	438.65781	-93.15625	698.54700	-774.18884	-259.07721	547.90936	-135.70537	-107.06516	551.65869	-173.93723	-53.71886	577.80762	723.23724	91.95279	577.55835	689.73297	
6146	61.450	-345.88080	14.78448	-39.31521	85.93387	16.80087	-162.75107	-215.36365	40.49049	547.70758	220.79323	44.09943	438.60114	-88.49557	695.38214	-774.13751	-258.12164	547.68213	-135.90906	-106.07752	551.67804	-173.99609	-53.55489	578.13269	723.20367	91.87105	577.89899	689.83777	
6147	61.460	-344.71481	14.51002	-39.36536	86.93176	16.34454	-162.68205	-214.68626	40.50876	547.74292	222.11101	44.47419	438.71155	-83.61304	691.87140	-773.92987	-256.90128	547.58752	-136.19199	-104.89805	551.46082	-174.13699	-53.48549	578.47632	723.26422	92.24008	577.74103	689.96246	
6148	61.470	-343.68570	14.63618	-39.50112	88.40878	16.18636	-162.57861	-213.54506	40.27565	547.78003	222.83086	44.66076	438.71613	-79.53339	688.68799	-774.06201	-255.44971	547.45483	-136.60085	-103.57353	551.30756	-174.17761	-53.55469	578.79584	723.11597	92.04015	578.08838	690.21417	
6149	61.480	-342.85168	14.80006	-39.74890	89.13004	16.20994	-162.51727	-212.97498	40.49902	547.52802	223.24550	44.74837	438.78995	-75.70473	685.59711	-774.22491	-253.85855	547.13287	-137.25691	-101.80945	550.82428	-174.44054	-53.73044	579.20349	723.05859	91.84027	578.57343	690.42383	
6150	61.490	-341.72250	15.11120	-40.49051	90.61317	15.92500	-162.56868	-212.39267	40.54756	547.38477	224.46129	45.06128	438.93591	-72.16682	682.50635	-774.28021	-252.06168	546.72253	-137.61389	-99.72786	550.25128	-174.18362	-53.92442	579.64301	723.01044	92.01708	579.05371	690.61908	
6151	61.500	-340.91776	15.24348	-40.41959	91.91227	15.55500	-162.34489	-211.04512	40.43621	547.27979	225.09898	45.35979	438.98969	-69.46983	680.12512	-774.60767	-250.15166	546.22552	-138.06252	-97.47708	549.75708	-174.33389	-54.06521	580.22009	722.86658	91.64985	579.45721	690.85791	
6152	61.510	-339.49472	15.11400	-40.58761	93.14541	15.61781	-162.11763	-210.36790	40.43154	547.20416	225.48074	45.36903	438.94867	-67.46580	677.94690	-775.14093	-248.04256	545.69934	-138.68628	-95.66462	549.17993	-174.80782	-54.36882	580.69745	722.70447	91.73736	580.06952	691.40930	
6153	61.520	-338.64777	15.39252	-40.68016	94.22963	15.24137	-162.28838	-209.91554	40.84942	546.94080	226.73993	45.65383	439.09238	-66.11635	676.18884	-775.47229	-245.79150	545.05634	-139.14035	-93.69266	548.65485	-175.02386	-54.35285	581.21582	722.67584	91.63458	580.50732	691.55548	
6154	61.530	-337.33694	15.23690	-40.73975	95.57257	15.26566	-162.00435	-208.61087	40.78187	546.99622	227.85501	45.89296	439.05145	-65.23149	674.61279	-775.81000	-243.88240	544.55127	-139.62785	-91.70240	547.92828	-174.96886	-53.94935	581.88959	722.59851	92.19569	581.16125	691.76782	
6155	61.540	-336.38919	15.56195	-40.94267	96.73814	14.99299	-162.15080	-207.72401	40.82012	546.90833	228.23143	45.67683	438.98083	-65.23791	673.55804	-776.40991	-242.01422	543.85913	-139.82103	-89.64217	547.30542	-175.30594	-53.50624	582.41168	722.35883	92.80363	581.64880	691.90198	
6156	61.550	-335.05698	15.31423	-40.88010	97.75322	15.06841	-162.18958	-207.24619	41.12439	546.68658	229.72386	45.82563	439.12482	-65.86497	672.74042	-777.07208	-240.17798	543.41016	-140.34052	-88.07900	546.77087	-175.38206	-52.30075	582.28235	722.17480	93.50185	581.90918	691.87866	
6157	61.560	-334.33505	15.41812	-40.88079	98.44868	14.91755	-162.10641	-205.73499	41.13566	546.66229	230.42378	45.79166	439.00455	-66.84809	672.24768	-777.60406	-238.31316	542.87830	-140.62851	-85.90575	546.06744	-175.45760	-51.14003	582.72797	722.00220	94.49304	582.47925	691.85638	
6158	61.570	-333.31985	15.50508	-40.95657	99.44329	15.01119	-161.93501	-204.98781	41.25018	546.45703	231.82712	45.79135	439.10562	-68.31834	671.94696	-778.12988	-236.66139	542.53601	-140.58189	-84.63257	545.65314	-175.59373	-49.25896	582.87036	721.70703	95.63589	582.76379	691.76685	
6159	61.580	-332.31372	15.44450	-40.97633	100.44904	14.97421	-162.01732	-204.06737	41.57829	546.30017	233.04539	45.92829	439.19116	-70.09190	671.70032	-778.55737	-235.26950	542.19904	-140.69234	-82.95081	545.23273	-175.67926	-48.29646	583.62622	721.80908	97.17119	582.93488	691.69800	
6160	61.590	-331.39078	15.46640	-41.01840	101.60252	14.91185	-161.92282	-202.79802	41.63121	546.26666	233.37282	45.60175	438.86301	-71.93559	671.82416	-778.89648	-234.07874	542.04053	-140.70541	-81.58134	544.80334	-175.51352	-46.44178	583.81610	721.64343	99.25253	583.25787	691.51746	
